<?xml version="1.0" encoding="UTF-8"?>
<svg id="_Слой_1" data-name="Слой 1" xmlns="http://www.w3.org/2000/svg" viewBox="0 0 35.2 34.55">
  <defs>
    <style>
      .cls-1 {
        fill: #dc1313;
      }
    </style>
  </defs>
  <path class="cls-1" d="M9.85,28.2c2.4,1.84,4.53,4.01,6.97,5.8,.04,.16,.13,.31,.26,.41,.14,.1,.29,.14,.42,.14,.56,0,1.06-.69,1.47-1.04,1.3-1.32,2.61-2.63,4-3.86,3.86-3.31,7.77-6.79,10.25-11.3,2.03-3.63,2.61-8.14,1.26-12.1-.66-2.05-1.7-4.2-3.68-5.25-2.46-1.28-5.43-1.29-8-.32-3.74,1.35-5.59,5.33-6.84,8.84-2.08-2.53-5.2-5.61-8.66-5.74-2.38-.03-4.61,1.24-5.76,3.34C-.83,11.24-.27,15.73,1.89,19.79c1.89,3.42,4.97,5.97,7.96,8.41ZM3.99,10.58c.27-1.05,.78-2.1,1.72-2.7,.41-.32,.9-.46,1.45-.46,2.43,0,5.91,2.69,7.38,3.87,2.82,2.63,3.73,1.52,4.92-1.64,.87-2.01,1.72-4.2,3.54-5.54,1.47-1.28,3.46-1.6,5.3-1.02,1.35,.54,2.46,1.67,3.14,2.93,2.15,4.68,.06,11.91-3.7,15.27-3.56,3.58-8.52,5.76-11.06,10.28-.34-.5-.7-.99-1.08-1.47-.5-.64-1.06-1.23-1.65-1.79-3.63-3.32-7.75-6.61-9.54-11.35-.7-2.04-1.11-4.3-.44-6.4Zm-1.39-1.38c-.23,.62-.39,1.28-.48,1.94-.41,2.67,.4,5.37,1.49,7.79,.17,.34,.35,.67,.53,.99-.65-1-1.19-2.07-1.57-3.23-.94-2.39-.95-5.13,.03-7.49Z"/>
</svg>