<svg xmlns="http://www.w3.org/2000/svg" xmlns:xlink="http://www.w3.org/1999/xlink" width="330" height="85" viewBox="0 0 330 85" preserveAspectRatio="xMinYMin meet"><rect id="svgEditorBackground" x="0" y="0" width="320" height="78.6" style="fill:none;stroke:none;"/><defs><linearGradient id="gradient_leaf" y1=".3"><stop class="cls_lg_main" offset="0"/><stop class="cls_lg_main" offset=".2"/><stop class="cls_lg_shain" offset=".6"/><stop class="cls_lg_main" offset=".9"/><stop class="cls_lg_main" offset="1"/></linearGradient><linearGradient id="gradient_stick" y1="0"><stop class="cls_lg_main" offset="0"/><stop class="cls_lg_main" offset=".7"/><stop class="cls_lg_shain" offset="1"/></linearGradient><filter id="filterShadow" x="0" y="0" width="200%" height="200%"><feOffset result="offOut" in="SourceAlpha" dx="1" dy="1"/><feGaussianBlur result="blurOut" in="offOut" stdDeviation="1"/><feBlend in="SourceGraphic" in2="blurOut"/></filter><style>.cls_main{fill:#178744}.cls_lg_main{stop-color:#178744}.cls_lg_shain{stop-color:#c0d74a}</style></defs><g class="layer" id="layer_arnebia_logo"><path fill="url(#gradient_stick)" d="M10.1 60a58.6 58.6 0 00-10.1.9c10.9 1.1 33.6 1.3 44.8 1.4 17.9.3 255.6 0 255.6 0C319.2 61 320 60 320 60H10.1z" id="svg_5"/><path fill="url(#gradient_leaf)" d="M159.5 73.8s14.1-4.8 22.8-10.9 12.4-12.7 14.3-15.2 8.5-11.3 12.6-14.8a103.9 103.9 0 0115.7-10.7 108.4 108.4 0 0116.9-6.9c5.5-1.5 11.4-2.6 16.4-3.8a81.6 81.6 0 0012.3-3.6C275.4 6 284 0 284 0l-7.7 19.6a68.9 68.9 0 01-6.2 12.2A48.5 48.5 0 01260 43.4a42.8 42.8 0 01-14.6 7.4 51.1 51.1 0 01-10.2 1.4c-2.8 0-10-.2-11.3-.1s-6.8.3-8.3.5l-5.1 1.3-4.5 1.8a41.5 41.5 0 014.7-4.6c1.5-1.1 4.7-2 7-2.5a51.2 51.2 0 0110.7-1.3c3.8-.1 6.1.1 10.1.2s7.2 0 10.6-1a24.5 24.5 0 009.2-4.5 35.2 35.2 0 008.9-10.5 72.7 72.7 0 005.6-12.1c1.6-4.3 5.7-13.6 5.7-13.6s-8 5.8-22.3 9.7l-13.8 4.1c-5.7 1.7-16.7 6-24.1 10.7a57.2 57.2 0 00-9.3 7.2 76.8 76.8 0 00-9.2 9.7c-2.2 2.6-5.6 7.3-8.8 10.6s-7.5 6.1-11.2 8.6a102.9 102.9 0 01-16 8.2c-5.7 2.5-9.5 4-9.5 4l5.2-4.8z" id="svg_7"/><g id="arnebia" class="cls_main"><path class="cls_main" d="M25.3 51.5l10-40.1h3.6l10.5 40.1h-3.9l-2.9-12.2H31.7l-2.8 12.2h-3.6zM32.7 35h8.8L37 15.6 32.7 35z" id="svg_l1"/><path class="cls_main" d="M52.1 51.5V11.4h11.4c2.4 0 4.2.3 5.3 1.1a7.9 7.9 0 012.8 3.7 16.6 16.6 0 011.1 6.1 12.6 12.6 0 01-1.9 7.3 8 8 0 01-5.3 3.6 10.7 10.7 0 012.1 2.2 31 31 0 012.7 5.1l4.5 11h-4.3l-3.4-8.4a59.5 59.5 0 00-3-6.6 6.7 6.7 0 00-2-2.3 6 6 0 00-2.6-.5h-4v17.8h-3.4zm3.4-22.4h7.3a7.3 7.3 0 003.7-.8 5.1 5.1 0 002-2.3 10.6 10.6 0 00.7-3.7 7.8 7.8 0 00-1.4-4.8 5.1 5.1 0 00-4.1-1.7h-8.2v13.3z" id="svg_l2"/><path class="cls_main" d="M78 51.5V11.4h3.5L95 42.9V11.4h3.3v40.1h-3.5L81.3 19.9v31.6H78z" id="svg_l3"/><path class="cls_main" d="M104.1 51.5V11.4h18.6v4.7h-15.2v12.2h14.2v4.8h-14.2v13.6h15.8v4.8h-19.2z" id="svg_l4" stroke="#000" stroke-opacity="0" stroke-width="0"/><path class="cls_main" d="M127.9 51.5V11.4h9.7a8.7 8.7 0 014.6 1.1 8.4 8.4 0 012.8 3.7 14.1 14.1 0 01.2 10.4 9.4 9.4 0 01-2.7 3.5 7.2 7.2 0 013.5 3.6 12.5 12.5 0 011.3 6.1 17.5 17.5 0 01-1.1 6.4 8.8 8.8 0 01-3.2 4 9.9 9.9 0 01-5.3 1.3h-9.8zm3.4-23.3h5.6a8 8 0 003.1-.4 4.1 4.1 0 002-1.9 7.6 7.6 0 00.7-3.7 9.7 9.7 0 00-.6-3.6 4.2 4.2 0 00-1.7-2 11.8 11.8 0 00-3.9-.5h-5.2v12.1zm0 18.5h6.4a6.2 6.2 0 003.1-.5 4.7 4.7 0 002.3-2.3 10 10 0 00.7-4.1 8.6 8.6 0 00-.7-3.8 5.1 5.1 0 00-2-2.3 7.4 7.4 0 00-3.8-.8h-6v13.8z" id="svg_l5"/><path class="cls_main" d="M152.6 51.5V11.4h3.4v40.1h-3.4z" id="svg_l6" stroke="#000" stroke-opacity="0" stroke-width="0"/><path class="cls_main" d="M159.2 51.5l9.9-40.1h3.6l10.6 40.1h-3.9l-3-12.2h-10.8l-2.8 12.2h-3.6zm7.3-16.5h8.8l-4.5-19.4-4.3 19.4z" id="svg_l7" stroke="#000" stroke-opacity="0" stroke-width="0"/></g></g><use xlink:href="#layer_arnebia_logo" filter="url(#filterShadow)" fill-opacity=".5"/></svg>